0
SECTION
2
HEADER
9
$ACADVER
1
AC1015
9
$INSUNITS
70
1
0
ENDSEC
0
SECTION
2
TABLES
0
TABLE
2
LTYPE
70
2
0
LTYPE
2
CONTINUOUS
70
0
3
Solid line
72
65
73
0
40
0
0
LTYPE
2
DASHED
70
0
3
Dashed line
72
65
73
2
40
0.375
49
0.25
74
0
49
-0.125
74
0
0
ENDTAB
0
TABLE
2
LAYER
70
2
0
LAYER
2
CUT
70
0
62
1
6
CONTINUOUS
0
LAYER
2
REFERENCE
70
0
62
8
6
CONTINUOUS
0
ENDTAB
0
ENDSEC
0
SECTION
2
ENTITIES
0
LWPOLYLINE
100
AcDbEntity
8
CUT
100
AcDbPolyline
90
12
70
1
10
6.5555
20
0
10
37.6615
20
0
10
37.6615
20
3.25
10
43.643039
20
3.25
10
43.643039
20
7.5
10
36.3145
20
7.5
10
36.3145
20
10.75
10
13.6825
20
10.75
10
13.6825
20
7.5
10
0
20
7.5
10
0
20
3.25
10
6.5555
20
3.25
0
LWPOLYLINE
100
AcDbEntity
8
REFERENCE
100
AcDbPolyline
90
4
70
1
10
0
20
0
10
43.643039
20
0
10
43.643039
20
10.75
10
0
20
10.75
0
CIRCLE
100
AcDbEntity
8
REFERENCE
100
AcDbCircle
10
6.243
20
2.125
30
0
40
0.3125
0
LINE
100
AcDbEntity
8
REFERENCE
100
AcDbLine
10
6.243
20
0.875
30
0
11
6.243
21
3.375
31
0
0
CIRCLE
100
AcDbEntity
8
REFERENCE
100
AcDbCircle
10
37.974
20
2.125
30
0
40
0.3125
0
LINE
100
AcDbEntity
8
REFERENCE
100
AcDbLine
10
37.974
20
0.875
30
0
11
37.974
21
3.375
31
0
0
CIRCLE
100
AcDbEntity
8
REFERENCE
100
AcDbCircle
10
13.37
20
8.625
30
0
40
0.3125
0
LINE
100
AcDbEntity
8
REFERENCE
100
AcDbLine
10
13.37
20
7.375
30
0
11
13.37
21
9.875
31
0
0
CIRCLE
100
AcDbEntity
8
REFERENCE
100
AcDbCircle
10
36.627
20
8.625
30
0
40
0.3125
0
LINE
100
AcDbEntity
8
REFERENCE
100
AcDbLine
10
36.627
20
7.375
30
0
11
36.627
21
9.875
31
0
0
LINE
100
AcDbEntity
8
REFERENCE
62
2
6
DASHED
100
AcDbLine
10
6.5555
20
3.375
30
0
11
37.6615
21
3.375
31
0
0
LINE
100
AcDbEntity
8
REFERENCE
62
2
6
DASHED
100
AcDbLine
10
13.6825
20
7.375
30
0
11
36.3145
21
7.375
31
0
0
ENDSEC
0
EOF
