0
SECTION
2
HEADER
9
$ACADVER
1
AC1015
9
$INSUNITS
70
1
0
ENDSEC
0
SECTION
2
TABLES
0
TABLE
2
LTYPE
70
2
0
LTYPE
2
CONTINUOUS
70
0
3
Solid line
72
65
73
0
40
0
0
LTYPE
2
DASHED
70
0
3
Dashed line
72
65
73
2
40
0.375
49
0.25
74
0
49
-0.125
74
0
0
ENDTAB
0
TABLE
2
LAYER
70
4
0
LAYER
2
CUT
70
0
62
7
6
CONTINUOUS
0
LAYER
2
INNER_CUT
70
0
62
1
6
CONTINUOUS
0
LAYER
2
CONSTRUCTION
70
0
62
2
6
DASHED
0
LAYER
2
REFERENCE
70
0
62
8
6
CONTINUOUS
0
ENDTAB
0
ENDSEC
0
SECTION
2
ENTITIES
0
LWPOLYLINE
100
AcDbEntity
8
CUT
100
AcDbPolyline
90
8
70
1
10
0
20
3.375
10
5.044
20
0
10
38.025
20
0
10
43.643039
20
3.375
10
43.643039
20
7.375
10
30.898
20
10.75
10
6.391
20
10.75
10
0
20
7.375
0
LWPOLYLINE
100
AcDbEntity
8
INNER_CUT
100
AcDbPolyline
90
4
70
0
10
0
20
3.375
10
0
20
3.25
10
6.294
20
3.25
10
6.294
20
0
0
LWPOLYLINE
100
AcDbEntity
8
INNER_CUT
100
AcDbPolyline
90
4
70
0
10
43.643039
20
3.375
10
43.643039
20
3.25
10
36.775
20
3.25
10
36.775
20
0
0
LWPOLYLINE
100
AcDbEntity
8
INNER_CUT
100
AcDbPolyline
90
4
70
0
10
0
20
7.375
10
0
20
7.5
10
7.641
20
7.5
10
7.641
20
10.75
0
LWPOLYLINE
100
AcDbEntity
8
INNER_CUT
100
AcDbPolyline
90
4
70
0
10
43.643039
20
7.375
10
43.643039
20
7.5
10
29.648
20
7.5
10
29.648
20
10.75
0
CIRCLE
100
AcDbEntity
8
REFERENCE
100
AcDbCircle
10
5.669
20
2.125
30
0
40
0.3125
0
CIRCLE
100
AcDbEntity
8
REFERENCE
100
AcDbCircle
10
37.4
20
2.125
30
0
40
0.3125
0
CIRCLE
100
AcDbEntity
8
REFERENCE
100
AcDbCircle
10
7.016
20
8.625
30
0
40
0.3125
0
CIRCLE
100
AcDbEntity
8
REFERENCE
100
AcDbCircle
10
30.273
20
8.625
30
0
40
0.3125
0
LINE
100
AcDbEntity
8
CONSTRUCTION
100
AcDbLine
10
0
20
3.375
30
0
11
43.643039
21
3.375
31
0
0
LINE
100
AcDbEntity
8
CONSTRUCTION
100
AcDbLine
10
0
20
7.375
30
0
11
43.643039
21
7.375
31
0
0
ENDSEC
0
EOF
