0
SECTION
2
HEADER
9
$ACADVER
1
AC1015
9
$INSUNITS
70
1
0
ENDSEC
0
SECTION
2
TABLES
0
TABLE
2
LTYPE
70
1
0
LTYPE
2
CONTINUOUS
70
0
3
Solid line
72
65
73
0
40
0
0
ENDTAB
0
TABLE
2
LAYER
70
1
0
LAYER
2
CUT
70
0
62
1
6
CONTINUOUS
0
ENDTAB
0
ENDSEC
0
SECTION
2
ENTITIES
0
LWPOLYLINE
100
AcDbEntity
8
CUT
100
AcDbPolyline
90
12
70
1
10
5.9375
20
0
10
31.3705
20
0
10
31.3705
20
3.25
10
37.681009
20
3.25
10
37.681009
20
7.5
10
25.5335
20
7.5
10
25.5335
20
10.75
10
7.7645
20
10.75
10
7.7645
20
7.5
10
0
20
7.5
10
0
20
3.25
10
5.9375
20
3.25
0
ENDSEC
0
EOF
